<?xml version="1.0" encoding="UTF-8" standalone="no"?><svg width="1172" height="280" viewBox="0 0 1172 280" xmlns="http://www.w3.org/2000/svg">
<defs>
<marker id="startarrow" markerWidth="10" markerHeight="7"
refX="0" refY="3.5" orient="auto">
<polygon points="10 0, 10 7, 0 3.5" />
</marker>
<marker id="endarrow" markerWidth="10" markerHeight="7"
refX="10" refY="3.5" orient="auto">
<polygon points="0 0, 10 3.5, 0 7" />
</marker>

</defs><style>
.a14 { font-size: 14px; font-family: Times, serif; }
</style>
<ellipse cx="127" cy="47" rx="80" ry="17" fill="#ffffffff" 
            stroke-width="1" stroke="#000000ff"/>
<text dominant-baseline="middle" text-anchor="middle" 
            x="127" y="33" class="a14"><tspan x = "127" dy="1.0em">scene_info</tspan></text><ellipse cx="347" cy="47" rx="80" ry="17" fill="#ffffffff" 
            stroke-width="1" stroke="#000000ff"/>
<text dominant-baseline="middle" text-anchor="middle" 
            x="347" y="33" class="a14"><tspan x = "347" dy="1.0em">scene_info</tspan></text><ellipse cx="567" cy="47" rx="80" ry="17" fill="#ffffffff" 
            stroke-width="1" stroke="#000000ff"/>
<text dominant-baseline="middle" text-anchor="middle" 
            x="567" y="33" class="a14"><tspan x = "567" dy="1.0em">scene_info</tspan></text><ellipse cx="787" cy="47" rx="80" ry="17" fill="#ffffffff" 
            stroke-width="1" stroke="#000000ff"/>
<text dominant-baseline="middle" text-anchor="middle" 
            x="787" y="33" class="a14"><tspan x = "787" dy="1.0em">scene_info</tspan></text><ellipse cx="1007" cy="47" rx="80" ry="17" fill="#ffffffff" 
            stroke-width="1" stroke="#000000ff"/>
<text dominant-baseline="middle" text-anchor="middle" 
            x="1007" y="33" class="a14"><tspan x = "1007" dy="1.0em">scene_info</tspan></text><ellipse cx="567" cy="175" rx="80" ry="17" fill="#ffffffff" 
            stroke-width="1" stroke="#000000ff"/>
<text dominant-baseline="middle" text-anchor="middle" 
            x="567" y="161" class="a14"><tspan x = "567" dy="1.0em">scene_info</tspan></text><text dominant-baseline="middle" text-anchor="middle" 
            x="66" y="97" class="a14"><tspan x = "66" dy="1.0em">decision</tspan></text><text dominant-baseline="middle" text-anchor="middle" 
            x="286" y="97" class="a14"><tspan x = "286" dy="1.0em">decision</tspan></text><text dominant-baseline="middle" text-anchor="middle" 
            x="506" y="97" class="a14"><tspan x = "506" dy="1.0em">decision</tspan></text><text dominant-baseline="middle" text-anchor="middle" 
            x="726" y="97" class="a14"><tspan x = "726" dy="1.0em">decision</tspan></text><text dominant-baseline="middle" text-anchor="middle" 
            x="946" y="97" class="a14"><tspan x = "946" dy="1.0em">decision</tspan></text><text dominant-baseline="middle" text-anchor="middle" 
            x="390.999" y="161" class="a14"><tspan x = "390.999" dy="1.0em">decision</tspan></text><path id="arrow0" d="M 127 64 C 127 94, 127 81, 127 111 S 471.29648627038506 161.079488912056, 500.9840794489204 165.39768428347932 " stroke="#000000ff" stroke-width="1"   marker-end="url(#endarrow)" 
            fill="transparent" />
<text><textPath href="#arrow0" startOffset="50%" text-anchor="middle" class="a14"></textPath></text><path id="arrow1" d="M 347 64 C 347 94, 347 81, 347 111 S 491.0054686537033 152.8924999719864, 519.8113275518106 161.27238619689032 " stroke="#000000ff" stroke-width="1"   marker-end="url(#endarrow)" 
            fill="transparent" />
<text><textPath href="#arrow1" startOffset="50%" text-anchor="middle" class="a14"></textPath></text><path id="arrow2" d="M 567 64 C 567 94, 567 81, 567 111 S 567 128, 567 158 " stroke="#000000ff" stroke-width="1"   marker-end="url(#endarrow)" 
            fill="transparent" />
<text><textPath href="#arrow2" startOffset="50%" text-anchor="middle" class="a14"></textPath></text><path id="arrow3" d="M 787 64 C 787 94, 787 81, 787 111 S 642.9945313462968 152.8924999719864, 614.1886724481894 161.27238619689032 " stroke="#000000ff" stroke-width="1"   marker-end="url(#endarrow)" 
            fill="transparent" />
<text><textPath href="#arrow3" startOffset="50%" text-anchor="middle" class="a14"></textPath></text><path id="arrow4" d="M 1007 64 C 1007 94, 1007 81, 1007 111 S 662.703513729615 161.079488912056, 633.0159205510796 165.39768428347932 " stroke="#000000ff" stroke-width="1"   marker-end="url(#endarrow)" 
            fill="transparent" />
<text><textPath href="#arrow4" startOffset="50%" text-anchor="middle" class="a14"></textPath></text><path id="arrow5" d="M 487 175 C 457 175, 451.999 205, 451.999 175 S 457 175, 487 175 " stroke="#000000ff" stroke-width="1"   marker-end="url(#endarrow)" 
            fill="transparent" />
<text><textPath href="#arrow5" startOffset="50%" text-anchor="middle" class="a14"></textPath></text></svg>